<svg viewBox="0 0 55 38" fill="none" xmlns="http://www.w3.org/2000/svg">
<path d="M28.2183 37.4737C29.9801 37.4737 31.4082 36.0455 31.4082 34.2838C31.4082 32.5221 29.9801 31.0939 28.2183 31.0939C26.4566 31.0939 25.0284 32.5221 25.0284 34.2838C25.0284 36.0455 26.4566 37.4737 28.2183 37.4737Z" fill="#312783"/>
<path d="M43.677 37.4737C45.5742 37.4737 47.1122 36.0455 47.1122 34.2838C47.1122 32.5221 45.5742 31.0939 43.677 31.0939C41.7797 31.0939 40.2417 32.5221 40.2417 34.2838C40.2417 36.0455 41.7797 37.4737 43.677 37.4737Z" fill="#312783"/>
<path d="M22.5746 12.4453L4.58931 13.2165C4.35923 13.2165 4.35923 13.567 4.58931 13.567L22.3062 14.4083L22.5746 12.4453Z" fill="#BD1818"/>
<path d="M21.5932 16.862L7.52876 17.6651C7.30552 17.6651 7.30552 18.1112 7.52876 18.1112L21.5932 19.3158V16.862Z" fill="#BD1818"/>
<path d="M21.1024 21.2788L0.170639 21.9695C-0.0568797 21.9695 -0.0568797 22.333 0.170639 22.333L20.8369 23.2418L21.1024 21.2788Z" fill="#BD1818"/>
<path d="M20.6116 25.6957L6.06361 26.5879C5.83085 26.5879 5.83085 27.0341 6.06361 27.0341L20.3013 28.1494L20.6116 25.6957Z" fill="#BD1818"/>
<path d="M11.2874 4.10248L23.1822 6.13809L19.914 30.6031H51.0383" stroke="#2D2D7E" stroke-width="1.97712" stroke-miterlimit="10" stroke-linecap="round" stroke-linejoin="round"/>
<path d="M24.8018 12.4041C25.1793 12.1414 37.9389 4.03433 40.8834 2.19523C41.2232 1.97004 41.714 2.00757 42.0537 2.2703L53.4921 11.8036" stroke="white" stroke-width="2.38988" stroke-miterlimit="10" stroke-linecap="round"/>
<path d="M24.8018 12.4041C25.1793 12.1414 38.2787 3.84666 40.9967 2.12016C41.2987 1.93249 41.6762 1.97003 41.9405 2.19522L53.4921 11.8411" stroke="#E63312" stroke-width="1.06216" stroke-miterlimit="10" stroke-linecap="round"/>
<path d="M23.8579 28.3554L26.3494 11.9912C26.3494 11.9912 27.0289 7.14951 32.1253 7.14951C37.2216 7.14951 51.9065 7.3747 51.9065 7.3747L48.9619 23.5137C48.9619 23.5137 48.2447 28.3554 43.1861 28.3554C38.1276 28.3554 23.8579 28.3554 23.8579 28.3554Z" fill="#312783" stroke="white" stroke-width="0.847353" stroke-miterlimit="10"/>
<path d="M32.3518 23.1385H29.6338C29.445 23.1385 29.3318 22.9884 29.4073 22.8007L30.9928 17.6212H29.2563L27.7085 22.6506C27.3687 23.7766 28.0105 24.6773 29.143 24.6773H33.4843C32.918 24.3395 32.5405 23.8141 32.3518 23.1385Z" fill="white"/>
<path d="M38.9959 24.6022C38.5051 24.2644 38.1654 23.739 38.0144 23.1384H35.9758C35.1453 23.1384 34.6546 22.613 34.6168 21.7873H36.6931L37.1461 20.3235H35.0698C35.5606 19.5728 36.4289 19.0474 37.2216 19.0474H38.8071L39.2979 17.471H37.7124C35.5983 17.471 33.5598 19.0474 32.9558 21.0366C32.3141 23.1009 33.3711 24.6773 35.4851 24.6773H39.1469L38.9959 24.6022Z" fill="white"/>
<path d="M43.2994 17.5085C45.4134 17.5085 46.4704 19.0849 45.8664 21.0741C45.2247 23.1384 43.1862 24.7148 41.0721 24.7148C38.9581 24.7148 37.9011 23.1009 38.5429 21.0741C39.1469 19.0849 41.1854 17.5085 43.2994 17.5085ZM41.5629 23.176C42.6199 23.176 43.7147 22.2752 44.0922 21.0741C44.4319 19.9482 43.8657 19.0849 42.8087 19.0849C41.7516 19.0849 40.6569 19.9482 40.3171 21.0741C39.9396 22.2752 40.5059 23.176 41.5629 23.176Z" fill="white"/>
<path d="M31.7101 13.9055C31.5968 14.2808 31.4836 14.6186 31.4081 14.9939C31.2948 15.4443 31.2571 15.7071 31.7101 15.8197V15.8572C31.7101 15.8572 31.1061 15.8197 30.7286 15.8197C30.351 15.8197 29.7848 15.8572 29.7848 15.8572L29.8225 15.7821C30.0113 15.7446 30.1623 15.7071 30.3133 15.5194C30.4265 15.3693 30.502 15.1441 30.5775 14.9564C30.7286 14.5811 30.8041 14.2433 30.9173 13.868L31.3703 12.4417C31.4458 12.2541 31.5968 11.8037 31.5213 11.616C31.4836 11.5034 31.3703 11.4659 31.2571 11.4283L31.2948 11.3533H33.5221C33.9751 11.3533 34.4281 11.3908 34.8433 11.5409C35.2209 11.6911 35.5606 11.9913 35.4096 12.4793C35.2586 13.0047 34.7301 13.3425 34.2016 13.4926C33.6353 13.6803 33.0313 13.7178 32.5028 13.7178C32.2763 13.7178 32.0121 13.7178 31.8233 13.6803L31.7101 13.9055ZM32.5028 13.6052C33.1823 13.6052 34.1638 13.4176 34.4281 12.5543C34.6923 11.7286 33.8996 11.5785 33.2201 11.5785H32.4273L31.8233 13.5302C32.0498 13.6052 32.2763 13.6052 32.5028 13.6052Z" fill="white"/>
<path d="M36.3534 15.8571C36.3534 15.8571 35.7871 15.8196 35.5229 15.8196C35.2964 15.8196 34.6924 15.8571 34.6924 15.8571V15.8196C34.8811 15.7821 35.0321 15.7445 35.1454 15.5944C35.3341 15.4067 35.4096 15.1065 35.4851 14.9188L35.9759 13.3425C36.0514 13.0797 36.3534 11.9913 36.3534 11.9913C36.4289 11.8036 36.5422 11.4658 36.4667 11.3157C36.4289 11.2406 36.3534 11.2031 36.2779 11.2031V11.1656C36.6554 11.128 37.0707 11.0154 37.4482 10.9028C37.4482 10.9028 37.1084 11.9162 37.0707 12.1039L36.2024 14.9564C36.1269 15.1816 36.0136 15.5193 36.0891 15.707C36.1269 15.8196 36.2779 15.8571 36.3912 15.8947L36.3534 15.8571Z" fill="white"/>
<path d="M39.8642 15.8572C39.8264 15.632 39.8642 15.4068 39.9019 15.1816C39.7509 15.3693 39.5622 15.5194 39.3734 15.6695C39.0714 15.8572 38.7694 15.9698 38.4674 15.9698C38.0899 15.9698 37.7124 15.8947 37.4104 15.7071C37.1461 15.5194 37.0329 15.2191 37.1461 14.8814C37.4859 13.7929 39.1469 13.6803 39.9397 13.6803H40.3172L40.3927 13.4551C40.6192 12.7795 40.3927 12.3291 39.6754 12.3291C39.0714 12.3291 38.4297 12.5919 38.0899 13.1924L38.0144 13.2299L38.0522 12.5543C38.6562 12.2916 39.2979 12.179 39.8642 12.179C40.3172 12.179 40.7702 12.2541 41.0344 12.5543C41.2987 12.8546 41.2232 13.2674 41.0722 13.6803L40.8457 14.4685C40.7702 14.7688 40.5814 15.2942 40.6192 15.5569C40.6192 15.7071 40.6947 15.7821 40.8457 15.8197V15.8947H39.8642V15.8572ZM39.9019 13.8304C39.2224 13.8304 38.2787 14.0181 38.0144 14.8063C37.8634 15.2942 38.0522 15.7446 38.5429 15.7446C38.9204 15.7446 39.3734 15.5194 39.6377 15.1816C39.9019 14.8438 40.0529 14.506 40.1662 14.1307L40.2794 13.7929H39.9019V13.8304Z" fill="white"/>
<path d="M45.2625 13.1173L45.2248 13.0798C45.2625 12.5168 44.8095 12.2916 44.281 12.2916C44.0545 12.2916 43.7903 12.3291 43.5638 12.4793C43.3373 12.5919 43.1485 12.8171 43.073 13.0423C42.922 13.5302 43.375 13.6052 43.7525 13.6803L44.2055 13.7554C44.4698 13.7929 44.7718 13.868 44.9605 14.0181C45.1115 14.1682 45.187 14.431 45.1115 14.6937C44.9983 15.1065 44.6208 15.4819 44.2055 15.6695C43.7525 15.8572 43.2995 15.9323 42.8843 15.9323C42.2802 15.9323 41.714 15.7821 41.261 15.5569L41.714 14.8438L41.7517 14.8813C41.6762 15.4819 42.3557 15.7821 42.922 15.7821C43.4505 15.7821 44.1678 15.632 44.3565 14.9939C44.4698 14.5811 44.1678 14.4685 43.828 14.3934L43.3373 14.3184C42.771 14.2058 42.0915 13.9806 42.318 13.2674C42.4312 12.9297 42.7333 12.5919 43.0353 12.4417C43.4505 12.2165 43.8658 12.179 44.2433 12.179C44.7718 12.179 45.2625 12.3291 45.6778 12.5168L45.2625 13.1173Z" fill="white"/>
<path d="M47.6408 12.4042H48.4336L48.2448 12.6294H47.5653L47.3011 13.4927C47.1501 13.9806 47.0368 14.431 46.9236 14.9189C46.8103 15.3318 46.7348 15.7071 47.1878 15.8197V15.8572H46.2063C46.1308 15.8197 46.093 15.7446 46.0553 15.632C46.0553 15.4444 46.093 15.2192 46.1686 15.0315C46.2818 14.6562 46.3951 14.2433 46.5461 13.868C46.6216 13.6803 46.9236 12.6294 46.9236 12.6294H46.3195L46.4328 12.4793C47.0368 12.3291 47.5653 11.8037 47.9806 11.3158H48.0183L47.6408 12.4042Z" fill="white"/>
<path opacity="0.55" d="M25.1792 26.3287L27.4065 12.329C27.784 10.0395 29.747 8.35052 32.0875 8.35052H50.0945L32.3895 8.83845C30.1623 8.91351 28.2747 10.4899 27.8595 12.6668L25.1792 26.3287Z" fill="white"/>
<path opacity="0.57" d="M50.0945 9.21376L47.8672 23.2134C47.4897 25.5029 45.5267 27.1919 43.1862 27.1919H25.1792L42.8841 26.704C45.1114 26.6289 46.9989 25.0525 47.4142 22.8756L50.0945 9.21376Z" fill="#2B2171"/>
</svg>
