<svg viewBox="0 0 174 67" fill="none" xmlns="http://www.w3.org/2000/svg">
<path d="M45.3419 62C48.1727 62 50.4675 59.7052 50.4675 56.8744C50.4675 54.0436 48.1727 51.7488 45.3419 51.7488C42.5111 51.7488 40.2163 54.0436 40.2163 56.8744C40.2163 59.7052 42.5111 62 45.3419 62Z" fill="#312783"/>
<path d="M70.1813 62C73.2298 62 75.7011 59.7052 75.7011 56.8744C75.7011 54.0436 73.2298 51.7488 70.1813 51.7488C67.1327 51.7488 64.6614 54.0436 64.6614 56.8744C64.6614 59.7052 67.1327 62 70.1813 62Z" fill="#312783"/>
<path d="M36.2734 21.7838L7.37421 23.0229C7.0045 23.0229 7.0045 23.5862 7.37421 23.5862L35.8421 24.938L36.2734 21.7838Z" fill="#BD1818"/>
<path d="M34.6964 28.8807L12.0974 30.1711C11.7387 30.1711 11.7387 30.888 12.0974 30.888L34.6964 32.8235V28.8807Z" fill="#BD1818"/>
<path d="M33.9078 35.9777L0.274187 37.0875C-0.0913957 37.0875 -0.0913957 37.6717 0.274187 37.6717L33.4813 39.1319L33.9078 35.9777Z" fill="#BD1818"/>
<path d="M33.1193 43.0747L9.74316 44.5084C9.36914 44.5084 9.36914 45.2253 9.74316 45.2253L32.6206 47.0175L33.1193 43.0747Z" fill="#BD1818"/>
<path d="M18.1367 8.37836L37.2497 11.6492L31.9982 50.9603H82.0096" stroke="#2D2D7E" stroke-width="3.9183" stroke-miterlimit="10" stroke-linecap="round" stroke-linejoin="round"/>
<path d="M39.8521 21.7176C40.4586 21.2954 60.9611 8.26882 65.6925 5.31371C66.2384 4.95186 67.027 5.01217 67.5729 5.43433L85.9524 20.7526" stroke="white" stroke-width="4.7363" stroke-miterlimit="10" stroke-linecap="round"/>
<path d="M39.8521 21.7176C40.4586 21.2954 61.5071 7.96725 65.8745 5.19307C66.3597 4.89153 66.9663 4.95184 67.3909 5.31369L85.9524 20.8129" stroke="#E63312" stroke-width="2.105" stroke-miterlimit="10" stroke-linecap="round"/>
<path d="M38.3357 47.3486L42.3391 21.0542C42.3391 21.0542 43.431 13.2744 51.6199 13.2744C59.8087 13.2744 83.4048 13.6363 83.4048 13.6363L78.6735 39.5689C78.6735 39.5689 77.521 47.3486 69.3927 47.3486C61.2645 47.3486 38.3357 47.3486 38.3357 47.3486Z" fill="#312783" stroke="white" stroke-width="1.6793" stroke-miterlimit="10"/>
<path d="M51.9838 38.9657H47.6164C47.3131 38.9657 47.1311 38.7245 47.2524 38.423L49.8001 30.1004H47.0098L44.5228 38.1817C43.9769 39.991 45.0081 41.4384 46.8278 41.4384H53.8035C52.8937 40.8956 52.2871 40.0513 51.9838 38.9657Z" fill="white"/>
<path d="M62.6596 41.3178C61.8711 40.775 61.3252 39.9307 61.0825 38.9658H57.807C56.4725 38.9658 55.6839 38.1214 55.6233 36.7947H58.9595L59.6874 34.4426H56.3512C57.1397 33.2365 58.5349 32.3921 59.8087 32.3921H62.3563L63.1449 29.8592H60.5973C57.2004 29.8592 53.9248 32.3921 52.9543 35.5885C51.9231 38.9054 53.6215 41.4384 57.0184 41.4384H62.9023L62.6596 41.3178Z" fill="white"/>
<path d="M69.5748 29.9195C72.9717 29.9195 74.6701 32.4524 73.6996 35.6488C72.6684 38.9657 69.3928 41.4987 65.996 41.4987C62.5991 41.4987 60.9007 38.9054 61.9318 35.6488C62.9024 32.4524 66.1779 29.9195 69.5748 29.9195ZM66.7845 39.026C68.4829 39.026 70.242 37.5786 70.8486 35.6488C71.3945 33.8395 70.4847 32.4524 68.7862 32.4524C67.0878 32.4524 65.3287 33.8395 64.7828 35.6488C64.1762 37.5786 65.0861 39.026 66.7845 39.026Z" fill="white"/>
<path d="M50.9525 24.1299C50.7705 24.733 50.5885 25.2758 50.4672 25.8788C50.2852 26.6025 50.2246 27.0247 50.9525 27.2056V27.2659C50.9525 27.2659 49.9819 27.2056 49.3753 27.2056C48.7688 27.2056 47.8589 27.2659 47.8589 27.2659L47.9195 27.1453C48.2228 27.085 48.4655 27.0247 48.7081 26.7232C48.8901 26.4819 49.0114 26.1201 49.1327 25.8185C49.3753 25.2154 49.4967 24.6727 49.6786 24.0696L50.4065 21.7779C50.5279 21.4763 50.7705 20.7526 50.6492 20.4511C50.5885 20.2702 50.4065 20.2099 50.2246 20.1495L50.2852 20.0289H53.8641C54.592 20.0289 55.3199 20.0892 55.9871 20.3305C56.5937 20.5717 57.1396 21.0542 56.897 21.8382C56.6543 22.6825 55.8051 23.2253 54.9559 23.4665C54.046 23.768 53.0755 23.8284 52.2263 23.8284C51.8623 23.8284 51.4377 23.8284 51.1344 23.768L50.9525 24.1299ZM52.2263 23.6474C53.3181 23.6474 54.8952 23.3459 55.3199 21.9588C55.7445 20.632 54.4706 20.3908 53.3788 20.3908H52.105L51.1344 23.5268C51.4984 23.6474 51.8623 23.6474 52.2263 23.6474Z" fill="white"/>
<path d="M58.4134 27.2659C58.4134 27.2659 57.5035 27.2056 57.0789 27.2056C56.7149 27.2056 55.7444 27.2659 55.7444 27.2659V27.2056C56.0477 27.1453 56.2903 27.085 56.4723 26.8438C56.7756 26.5422 56.8969 26.0598 57.0182 25.7582L57.8068 23.2253C57.9281 22.8031 58.4134 21.0542 58.4134 21.0542C58.5347 20.7526 58.7166 20.2099 58.5953 19.9686C58.5347 19.848 58.4133 19.7877 58.292 19.7877V19.7274C58.8986 19.6671 59.5659 19.4862 60.1724 19.3052C60.1724 19.3052 59.6265 20.9336 59.5659 21.2351L58.1707 25.8185C58.0494 26.1804 57.8674 26.7232 57.9887 27.0247C58.0494 27.2056 58.292 27.2659 58.474 27.3262L58.4134 27.2659Z" fill="white"/>
<path d="M64.0546 27.2659C63.9939 26.9041 64.0546 26.5422 64.1153 26.1804C63.8726 26.4819 63.5693 26.7232 63.2661 26.9644C62.7808 27.2659 62.2955 27.4469 61.8103 27.4469C61.2037 27.4469 60.5971 27.3262 60.1118 27.0247C59.6872 26.7232 59.5052 26.2407 59.6872 25.6979C60.2331 23.949 62.9021 23.768 64.1759 23.768H64.7825L64.9038 23.4062C65.2678 22.3206 64.9038 21.5969 63.7513 21.5969C62.7808 21.5969 61.7496 22.0191 61.2037 22.984L61.0823 23.0443L61.143 21.9588C62.1135 21.5366 63.1447 21.3557 64.0546 21.3557C64.7825 21.3557 65.5104 21.4763 65.935 21.9588C66.3596 22.4413 66.2383 23.1047 65.9957 23.768L65.6317 25.0345C65.5104 25.517 65.2071 26.3613 65.2678 26.7835C65.2678 27.0247 65.3891 27.1453 65.6317 27.2056V27.3262H64.0546V27.2659ZM64.1153 24.0093C63.0234 24.0093 61.507 24.3108 61.0823 25.5773C60.8397 26.3613 61.143 27.085 61.9316 27.085C62.5381 27.085 63.266 26.7232 63.6907 26.1804C64.1153 25.6376 64.3579 25.0948 64.5399 24.4917L64.7218 23.949H64.1153V24.0093Z" fill="white"/>
<path d="M72.7289 22.8634L72.6682 22.8031C72.7289 21.8985 72.001 21.5366 71.1517 21.5366C70.7878 21.5366 70.3632 21.5969 69.9992 21.8382C69.6353 22.0191 69.332 22.381 69.2107 22.7428C68.968 23.5268 69.6959 23.6474 70.3025 23.768L71.0304 23.8887C71.455 23.949 71.9403 24.0696 72.2436 24.3108C72.4862 24.5521 72.6075 24.9742 72.4862 25.3964C72.3042 26.0598 71.6977 26.6628 71.0304 26.9644C70.3025 27.2659 69.5746 27.3865 68.9074 27.3865C67.9368 27.3865 67.027 27.1453 66.2991 26.7835L67.027 25.6376L67.0876 25.6979C66.9663 26.6628 68.0582 27.1453 68.968 27.1453C69.8173 27.1453 70.9698 26.9041 71.2731 25.8788C71.455 25.2154 70.9698 25.0345 70.4238 24.9139L69.6353 24.7933C68.7254 24.6124 67.6336 24.2505 67.9975 23.1047C68.1795 22.5619 68.6647 22.0191 69.15 21.7779C69.8173 21.416 70.4845 21.3557 71.0911 21.3557C71.9403 21.3557 72.7289 21.5969 73.3961 21.8985L72.7289 22.8634Z" fill="white"/>
<path d="M76.5503 21.7176H77.8242L77.5209 22.0794H76.429L76.0044 23.4665C75.7618 24.2505 75.5798 24.9742 75.3978 25.7582C75.2159 26.4216 75.0945 27.0247 75.8224 27.2056V27.2659H74.2453C74.124 27.2056 74.0633 27.085 74.0027 26.9041C74.0027 26.6025 74.0633 26.2407 74.1847 25.9392C74.3666 25.3361 74.5486 24.6727 74.7912 24.0696C74.9126 23.7681 75.3978 22.0794 75.3978 22.0794H74.4273L74.6093 21.8382C75.5798 21.597 76.429 20.7526 77.0963 19.9686H77.1569L76.5503 21.7176Z" fill="white"/>
<path opacity="0.55" d="M40.4585 44.0919L44.0373 21.5969C44.6439 17.9181 47.7982 15.2043 51.559 15.2043H80.493L52.0442 15.9883C48.4654 16.1089 45.4325 18.6418 44.7652 22.1397L40.4585 44.0919Z" fill="white"/>
<path opacity="0.57" d="M80.493 16.5913L76.9141 39.0864C76.3076 42.7652 73.1533 45.479 69.3925 45.479H40.4585L68.9072 44.695C72.4861 44.5744 75.519 42.0415 76.1862 38.5436L80.493 16.5913Z" fill="#2B2171"/>
<path d="M94.8681 25.024L94.6281 25L94.3401 24.952L94.2441 24.712V24.448L94.3401 24.256L94.3161 23.92L94.3401 23.776L94.3641 23.608L94.4121 23.344L94.5081 23.152L94.5321 23.008L94.5561 22.84L94.5801 22.528L94.6041 22.336L94.7001 22L94.7961 21.76V21.544L94.8441 21.4L94.8681 21.064L94.9401 20.848V20.656L94.9881 20.512V20.344L95.0841 20.056V19.72L95.1321 19.408L95.2521 19.072L95.3241 18.688L95.3001 18.52L95.3481 18.16L95.4201 17.992V17.656L95.5161 16.984L95.6121 16.672V16.504L95.6841 16.168L95.7081 15.856L95.8041 15.544L95.9001 15.256L95.9481 15.088L96.0201 14.8V14.512L96.0681 14.176L96.1401 14.008L96.1881 13.672L96.2361 13.504L96.2841 13.192L96.2601 13.048L96.2841 12.88V12.712L96.3081 12.544L96.4281 12.16V11.992L96.5001 11.848L96.5241 11.512L96.5961 11.2L96.6441 11.056L96.6681 10.864L96.6921 10.552L96.7161 10.288L96.8121 10.12V9.928L96.9081 9.496L96.9561 9.184L97.0041 9.064L96.9801 8.776L97.0041 8.608L97.0521 8.32L97.3401 8.2L98.5161 8.152L99.3801 8.176L100.004 8.2H102.812L103.196 8.224H103.484L103.796 8.32L103.868 8.512L103.82 8.68V8.944L103.772 9.256V9.376L103.7 9.784L103.628 10.096L103.604 10.24V10.408L103.508 10.84L103.436 11.344L103.22 11.464L103.004 11.44L102.62 11.488L102.164 11.44L101.828 11.416L101.204 11.44L100.22 11.464H99.9801L99.9321 11.656L99.9081 11.92L99.8841 12.088L99.8121 12.448L99.7401 12.784V12.904L99.6441 13.48L99.5481 13.672V13.864L99.5001 14.032L99.4761 14.176V14.344L99.4281 14.632L99.3561 14.872L99.6201 14.896L100.676 14.92L100.964 14.896L101.3 14.872H101.564L101.9 14.896L101.972 15.16L101.948 15.352L101.876 15.544V15.736L101.78 16.072V16.192L101.708 16.48L101.684 16.624L101.66 16.792L101.588 17.104V17.392L101.492 17.704L101.42 18.04L101.276 18.328H101.036L100.772 18.304H99.9081L99.3561 18.352L98.7801 18.304L98.7081 18.688L98.6601 18.928L98.6121 19.24L98.5401 19.576L98.5161 19.696L98.4201 19.96L98.4441 20.104L98.3721 20.416L98.3001 20.776L98.2281 21.064L98.1321 21.376L98.1561 21.544L98.1081 21.712L98.0841 22.048V22.192L98.0361 22.528L97.9881 22.816L97.9641 22.984L97.8201 23.272L97.7961 23.44V23.584L97.7721 23.752L97.7961 23.92L97.7241 24.208L97.6761 24.496L97.5801 24.808L97.3401 24.976L97.1721 24.952L97.0041 24.976L96.4281 25.024L95.9481 25L95.8041 25.024H94.8681ZM107.909 25.384L107.285 25.312L106.973 25.336L106.805 25.312L106.589 25.288L106.037 25.12L105.845 25.096L105.485 25L105.317 24.904L104.981 24.688L104.549 24.328L104.213 23.944L104.141 23.824L104.021 23.704L103.949 23.56L103.829 23.392L103.637 23.08V22.936L103.565 22.768L103.541 22.624L103.493 22.504L103.445 22.36L103.421 22.192L103.373 22.048L103.349 21.712L103.325 21.568L103.253 21.088L103.301 20.92V20.464L103.373 20.224L103.349 20.032V19.864L103.397 19.336L103.493 19V18.808L103.541 18.472V18.304L103.637 17.968L103.589 17.848L103.637 17.536L103.685 17.368L103.757 16.936L103.829 16.648V16.336L103.901 16.048V15.88L103.973 15.736L104.021 15.568V15.424L104.069 15.256L104.045 15.112L104.189 14.872L104.237 14.704V14.368L104.285 14.08L104.357 13.912L104.381 13.768L104.429 13.432L104.525 12.832L104.645 12.664L104.693 12.352L104.837 12.04L104.909 11.872L105.005 11.584L105.125 11.248L105.269 10.96L105.365 10.792L105.581 10.48L105.605 10.312L105.701 10.168L105.893 9.856L106.085 9.568L106.253 9.448L106.373 9.304L106.709 8.944L107.021 8.728L107.213 8.656L107.381 8.536L107.669 8.368L107.957 8.224L108.317 8.128L108.461 8.104L108.821 8.008L109.061 7.984L109.493 7.912L109.829 7.888L110.117 7.864L110.549 7.888L110.693 7.912L110.957 7.936L111.341 7.984L111.533 8.056L111.725 8.08L111.869 8.128L112.229 8.296L112.661 8.584L112.853 8.704L112.973 8.848L113.237 9.064L113.501 9.304L113.621 9.448L113.693 9.616L113.837 9.928L113.909 10.072L113.957 10.216L114.005 10.384L114.077 10.744L114.125 11.2L114.149 11.392V11.56L114.125 11.872L114.101 12.016L114.125 12.328V12.496L114.101 12.808L114.053 12.976L114.029 13.12L114.053 13.288V13.528L114.029 13.672L113.981 14.008L113.957 14.368L113.933 14.752L113.885 14.92L113.837 15.304L113.861 15.544L113.741 15.808L113.765 16.096L113.669 16.408L113.621 16.72L113.549 17.032L113.525 17.32L113.453 17.632L113.381 17.776L113.309 18.208V18.424L113.261 18.592L113.213 18.928L113.141 19.072L112.901 19.912L112.925 20.056L112.805 20.344L112.733 20.488L112.709 20.752L112.589 21.016L112.517 21.304V21.472L112.445 21.736L112.325 21.904L112.301 22.144L112.133 22.48L111.941 22.912L111.821 23.08L111.605 23.392L111.509 23.536L111.389 23.68L111.341 23.824L111.053 24.112L110.909 24.232L110.789 24.376L110.501 24.592L110.213 24.784L110.117 24.856L109.565 25.072L109.397 25.096L109.205 25.144L108.869 25.216L108.701 25.24L108.437 25.312L107.909 25.384ZM107.717 22.12H108.029L108.365 22.024L108.581 21.928L108.917 21.688L109.085 21.352L109.229 21.016L109.277 20.848V20.656L109.349 20.296L109.397 20.128L109.445 19.792L109.517 19.6L109.541 19.264L109.613 19.096L109.685 18.784L109.709 18.592L109.781 18.448V18.256L109.757 18.184L109.829 17.968L109.901 17.608L109.949 17.056L110.021 16.84L110.093 16.648L110.141 16.192L110.213 16.048L110.189 15.64L110.285 15.28L110.333 14.992L110.381 14.8L110.429 14.632L110.405 14.464L110.429 14.152L110.477 13.96L110.549 13.624L110.597 13.408V13.096L110.645 12.664L110.669 12.352L110.717 12.016L110.621 11.536L110.525 11.392L110.357 11.176L109.973 11.008L109.517 11.032L109.325 11.08L108.941 11.224L108.701 11.44L108.533 11.704L108.437 11.992L108.341 12.16L108.197 12.472L108.149 12.64L108.101 12.832L107.957 13.336V13.384L107.933 13.576L107.861 13.912L107.837 14.056L107.741 14.392L107.669 14.728L107.597 15.112L107.573 15.28L107.525 15.448L107.477 15.808L107.405 16L107.309 16.384L107.261 16.552L107.213 16.888V17.056L107.189 17.224L107.213 17.416L107.141 17.584L107.021 17.92L107.045 18.112L106.997 18.28L107.021 18.376L106.973 18.592V18.784L106.925 18.952V19.144L106.853 19.504V19.672L106.781 19.84L106.853 20.008L106.829 20.296L106.733 20.536L106.805 20.704V21.376L106.877 21.544L106.925 21.64L107.069 21.856L107.189 21.976L107.381 22.048L107.573 22.096L107.717 22.12ZM116.918 25.048L116.054 25.024H115.742L114.998 24.976L114.782 24.928L114.734 24.784V24.568L114.806 24.328L114.83 24.088L114.854 23.824V23.656L114.902 23.512V23.344L114.974 23.176V23.032L114.998 22.864L115.07 22.528V22.36L115.142 22.168L115.118 22L115.19 21.808L115.214 21.472L115.262 21.28L115.286 21.112L115.262 20.92L115.358 20.728V20.368L115.478 19.936V19.72L115.526 19.48L115.55 19.12V18.928L115.646 18.592L115.67 18.424L115.694 18.232V18.016L115.814 17.848L115.862 17.704L115.838 17.56L115.862 17.272L115.91 17.104L115.982 16.96V16.816L116.03 16.648L116.078 16.384L116.102 16.24L116.15 15.928L116.198 15.592V15.4L116.318 14.896V14.728L116.342 14.584L116.366 14.416L116.414 14.104L116.438 13.96V13.792L116.462 13.648L116.558 13.36L116.582 13.024L116.606 12.88L116.678 12.544L116.75 12.16L116.822 11.824L116.846 11.68V11.536L116.87 11.224V11.08L116.918 10.912L116.99 10.624L117.062 10.24L117.158 9.568L117.182 9.376L117.206 9.208V9.016L117.302 8.824L117.278 8.56L117.374 8.44L117.542 8.248L117.782 8.2H118.118L119.558 8.224H120.59L120.758 8.2L120.998 8.176L121.19 8.224L121.55 8.272H121.766L122.078 8.32L122.438 8.344L122.702 8.392H123.086L123.278 8.44L123.542 8.56L123.758 8.656L123.926 8.704L124.142 8.848L124.286 8.92L124.406 8.992L124.694 9.16L124.79 9.256L124.91 9.4L125.006 9.52L125.174 9.808L125.342 10.144L125.414 10.528L125.462 10.984V11.152L125.534 11.608V11.8L125.462 12.136L125.438 12.304L125.462 12.664V12.832L125.39 13.216L125.342 13.6L125.27 13.84L125.174 14.128L125.126 14.296L125.078 14.44L125.006 14.608L124.886 14.896L124.67 15.208L124.598 15.376L124.502 15.592L124.31 15.904L124.238 16.048L123.974 16.36L123.854 16.48L123.518 16.84L123.038 17.152L122.702 17.32L122.534 17.344V17.56L122.606 17.752L122.726 18.112V18.328L122.774 18.64L122.87 18.784L122.894 18.976L122.942 19.288L123.014 19.432L123.086 19.744L123.134 19.888L123.182 20.224L123.254 20.392L123.302 20.584L123.398 20.896V21.04L123.518 21.4L123.566 21.712L123.83 22.576L123.878 22.912L124.046 23.32L124.07 23.608L124.094 23.776L124.142 23.992L124.31 24.448L124.238 24.76L124.118 24.784L123.854 24.832H123.542L123.038 24.904L122.414 24.976H122.102L121.838 25H121.646L121.43 25.024L121.286 25L121.07 24.784L121.022 24.664L120.95 24.376L120.902 24.256L120.83 23.992L120.686 23.632V23.44L120.614 23.248L120.566 23.176L120.518 22.864L120.446 22.696V22.528L120.374 22.384L120.35 22.216L120.278 21.952L120.182 21.712V21.424L120.038 20.992L120.014 20.824L119.918 20.536L119.87 20.368L119.822 20.056L119.726 19.744L119.702 19.408L119.654 19.288L119.582 18.952L119.534 18.712L119.438 18.52L119.39 18.328L119.294 18.136L119.198 18.04L119.03 18.016L119.006 18.112L118.958 18.256L118.886 18.592L118.862 18.784L118.79 19.288V19.696L118.67 20.008L118.622 20.344V20.488L118.574 20.824L118.478 21.016V21.52L118.43 21.712L118.334 22.216L118.31 22.408L118.262 22.552V22.744L118.19 23.08L118.214 23.224L118.166 23.392V23.536L118.142 23.848L118.118 24.016V24.16L118.094 24.328L118.07 24.616L117.998 24.784L117.926 25L117.686 24.976L117.47 25L117.11 25.024L116.918 25.048ZM120.038 15.16H120.422L120.71 15.088L120.854 14.992L121.094 14.848L121.262 14.752L121.43 14.56L121.526 14.416L121.694 14.272L121.814 13.96L121.862 13.768L121.886 13.624L122.054 13.288V13.096L122.126 12.904L122.15 12.52L122.126 11.992L122.054 11.488L121.934 11.272L121.766 11.104L121.55 10.984L121.022 10.912L120.446 10.888L120.23 10.96L120.158 11.224L120.086 11.392L120.038 11.776L120.014 12.136L119.99 12.448L119.942 12.64L119.87 13.024V13.192L119.822 13.552L119.75 13.768L119.774 13.984L119.726 14.2L119.654 14.584L119.63 14.752L119.654 14.92L119.63 15.112L120.038 15.16ZM136.067 10.84L136.091 11.2V11.728L136.067 11.968L136.019 12.16L135.971 12.52L135.923 12.904L135.779 13.84L135.731 14.032L135.611 14.656L135.515 14.752L135.227 14.776L134.891 14.8L133.379 14.776L132.683 14.68L132.515 14.416V14.08L132.563 13.912L132.659 13.48L132.707 13.144L132.851 12.616L132.875 12.304L132.923 11.968V11.608L132.779 11.176L132.515 11.032L132.179 10.936H131.915L131.627 10.984L131.363 11.08L131.147 11.344L131.075 11.488L131.003 11.656L130.907 12.064L130.787 12.376L130.643 12.784V12.928L130.547 13.216L130.475 13.576L130.403 13.864L130.331 14.08L130.307 14.248L130.283 14.392L130.235 14.56L130.187 14.896L130.067 15.256L129.875 16.216L129.851 16.408L129.755 16.792L129.731 16.96L129.683 17.272L129.635 17.464L129.563 17.824V18.328L129.491 18.496L129.467 18.664V18.856L129.443 19.024L129.395 19.192L129.419 19.36L129.347 19.864V20.056L129.275 20.392L129.251 20.728V20.968L129.275 21.112V21.28L129.371 21.64L129.563 21.808L129.923 21.928L130.307 21.88H130.667L131.003 21.664L131.099 21.544L131.291 21.112L131.411 20.776L131.507 20.464L131.531 20.32L131.555 20.2L131.627 19.912L131.699 19.552L131.747 19.336L131.771 19.168L131.891 18.856L131.939 18.616L132.107 18.424L132.299 18.4L132.923 18.424H133.427L134.603 18.496L134.891 18.52L135.059 18.688L135.155 18.856V19.12L135.107 19.264V19.432L135.059 19.744L135.035 20.008L134.987 20.128L134.963 20.296L134.939 20.392L134.867 20.896L134.819 21.04L134.675 21.64L134.603 21.928L134.579 22.096L134.531 22.264L134.459 22.408L134.315 22.792L134.195 23.08L134.123 23.248L134.027 23.392L133.907 23.536L133.835 23.68L133.787 23.824L133.427 24.256L133.067 24.568L132.683 24.808L132.515 24.88L131.891 25.024L131.603 25.096L131.315 25.144L131.003 25.216H130.667L130.619 25.624L130.523 25.912H130.619L130.883 25.936H131.147L131.363 25.96L131.627 26.032L131.939 26.2L132.203 26.416L132.347 26.608L132.491 26.896L132.539 26.968L132.587 27.088L132.611 27.304L132.659 27.544L132.707 27.712V28.288L132.611 28.576L132.443 29.008L132.323 29.32L132.251 29.488L132.155 29.656L132.011 29.824L131.747 30.016L131.507 30.184L131.147 30.304L130.979 30.4L130.547 30.448L129.947 30.496L129.179 30.472L129.059 30.448L128.867 30.424L128.555 30.4H128.171L127.883 30.328L127.787 30.208L127.835 29.8L128.051 28.936L128.171 28.696L128.363 28.576L128.987 28.648L129.419 28.72L129.803 28.768L130.187 28.744L130.475 28.672L130.643 28.552L130.835 28.384L130.907 28.192L130.955 27.928L130.907 27.712L130.811 27.568L130.547 27.424L130.355 27.4L130.067 27.424H128.579L128.435 27.352L128.411 27.208L128.459 26.944L128.531 26.704L128.579 26.32L128.699 25.912L128.795 25.408L128.891 25.168L128.699 25.144L128.531 25.096L128.387 25.072L128.075 24.952L127.787 24.856L127.643 24.736L127.403 24.592L127.283 24.496L127.139 24.4L126.827 24.16L126.731 24.04L126.611 23.92L126.443 23.584L126.227 23.272L126.155 22.96L126.107 22.816L126.059 22.504L126.011 22.336V21.88L125.987 21.688V21.472L126.011 21.304V20.68L126.035 20.176L126.059 19.984L126.083 19.648L126.131 19.312V19.144L126.155 19L126.203 18.496L126.299 18.16L126.275 17.944L126.323 17.752L126.395 17.488L126.371 17.368L126.443 16.936L126.539 16.792V16.456L126.563 16.384V16.288L126.635 16.024L126.683 15.76L126.755 15.52L126.779 15.232V15.088L126.851 14.944V14.608L126.971 14.128L127.019 13.96L127.067 13.696L127.091 13.456L127.163 13.312L127.187 13.144L127.235 12.976L127.259 12.832L127.283 12.664L127.355 12.496L127.427 12.184L127.595 11.704L127.739 11.224L127.835 10.888L127.979 10.48L128.099 10.192L128.243 9.856L128.339 9.592L128.507 9.448L128.675 9.208L128.867 8.968L129.203 8.632L129.347 8.512L129.659 8.368L129.803 8.296L130.307 8.08L130.715 8.008L131.027 7.936L131.195 7.912H131.555L132.011 7.888H132.395L132.995 7.96L133.211 8.032H133.451L133.787 8.08L133.931 8.104L134.099 8.152L134.267 8.176L134.363 8.248L134.627 8.296L134.963 8.416L135.275 8.656L135.539 8.896L135.587 9.016L135.707 9.232L135.779 9.352L135.827 9.52L135.947 9.76L135.995 10.024L136.019 10.312L136.043 10.624L136.067 10.84ZM137.514 25.048L137.154 25.024L136.986 25L135.234 24.976L135.018 24.928L134.97 24.736L135.018 24.568L135.042 24.424L135.186 24.136L135.378 23.824L135.618 23.104L135.762 22.816L135.882 22.528L136.146 21.952L136.242 21.64L136.434 21.208L136.482 21.064L136.602 20.896L136.722 20.608L136.77 20.464L136.794 20.296L136.866 20.152L136.986 19.84L137.058 19.672L137.226 19.336L137.274 19.168L137.322 18.952L137.442 18.76L137.586 18.472L137.634 18.304L137.778 17.968L137.802 17.824L137.874 17.656L137.946 17.512L138.066 17.176L138.138 17.032L138.33 16.36L138.402 16.168L138.57 15.856L138.69 15.448L138.834 15.184L138.906 15.04L138.978 14.728L139.098 14.56L139.17 14.248L139.218 14.128L139.362 13.816L139.434 13.48L139.554 13.312L139.65 13.168L139.842 12.664L139.962 12.352L140.034 12.208L140.178 11.992L140.25 11.752L140.322 11.584L140.538 11.152L140.586 10.984L140.658 10.84L140.706 10.696L140.754 10.528L140.898 10.264L140.994 10.12L141.042 10L141.186 9.568L141.354 9.256L141.57 8.824L141.642 8.656L141.714 8.512L141.81 8.248L141.978 8.224H142.218L142.674 8.248L142.914 8.224H143.298L143.754 8.2H143.97L144.138 8.248L144.354 8.224H144.738L144.858 8.272L145.026 8.392L145.098 9.424V9.952L145.146 10.096V10.528L145.17 11.392V11.728L145.194 12.04L145.242 12.52V12.856L145.266 13.216L145.242 13.384V13.912L145.29 14.248V14.728L145.314 15.064L145.29 15.208L145.314 15.52V15.664L145.338 16.048L145.386 16.312V17.248L145.41 17.536L145.434 17.728V18.448L145.458 19.552V19.72L145.482 20.08L145.458 20.44L145.482 20.776L145.458 20.944L145.506 21.856V22L145.53 22.312L145.554 22.48V22.84L145.53 23.176L145.554 23.368V23.584L145.578 24.112V24.616C145.602 24.712 145.626 24.928 145.506 25C145.41 25.024 145.338 25 145.242 25L145.074 25.024L144.882 25H144.546L144.018 25.024H143.826L143.538 25L143.37 25.024L143.13 25.048L142.818 25.024H142.458L142.362 24.952L142.314 24.712L142.29 24.28L142.266 24.04L142.29 23.8V22.672L142.266 22.48L141.738 22.456L141.354 22.408L140.298 22.384H139.65L139.53 22.648L139.362 22.96L139.314 23.128L139.242 23.296L139.146 23.584L138.906 24.04L138.762 24.4L138.69 24.664L138.618 24.784L138.522 24.952L138.378 25.048L137.706 25.024L137.514 25.048ZM141.474 19.264H142.194L142.338 19.144L142.362 18.808L142.338 18.616L142.362 18.424V17.8L142.386 17.632V17.224L142.434 17.032L142.41 16.456L142.434 15.544L142.458 14.68L142.434 14.128L142.242 14.2L142.146 14.512L142.026 14.896L141.954 15.136L141.834 15.52L141.738 15.712L141.642 15.952L141.618 16.12L141.522 16.288L141.45 16.504L141.378 16.672L141.306 16.888L141.162 17.416L141.138 17.584L141.018 17.944L140.922 18.112L140.802 18.52L140.754 18.688L140.706 18.904L140.634 19.072L140.802 19.216H140.994L141.258 19.24L141.474 19.264ZM156.736 25.048L156.184 25.024L155.872 25L155.56 25.024L155.2 24.976L154.912 25L154.72 24.976H154.504L154.168 24.928L154.024 24.904H153.832L153.664 24.928H152.944L152.608 24.88L152.416 24.832V24.28L152.44 24.064L152.56 23.776L152.608 23.44L152.632 23.296L152.704 22.96L152.752 22.72L152.8 22.528V22.336L152.848 22L152.872 21.808L152.92 21.544L153.016 21.352L153.064 21.112V20.92L153.136 20.584L153.184 20.392L153.208 20.08L153.232 19.936L153.328 19.768V19.24L153.4 18.904L153.424 18.712L153.496 18.376L153.52 18.208L153.568 17.896L153.616 17.728L153.688 17.44L153.712 17.296L153.808 17.008V16.528L153.856 16.36L153.904 16.216L153.976 15.88L154.024 15.736L154.144 15.064L154.216 14.896L154.264 14.728L154.288 14.56V14.416L154.312 14.248L154.36 13.96L154.384 13.792L154.456 13.504V13.36L154.504 13.072L154.6 12.784V12.448L154.624 12.256L154.672 11.752L154.72 11.464L154.84 11.032L154.888 10.864V10.72L154.912 10.552L154.984 10.24L155.032 9.904L155.08 9.616L155.152 9.472L155.176 9.304L155.2 9.016L155.248 8.848L155.32 8.608L155.368 8.536L155.44 8.272L155.68 8.2H155.848L156.136 8.224L156.304 8.248L156.688 8.2H156.88L157.408 8.224L157.888 8.2H158.488L158.752 8.224L158.896 8.2H159.28L159.472 8.224L159.688 8.248L160.048 8.296H160.216L160.408 8.368L160.744 8.464H160.792L160.936 8.512L161.344 8.632L161.464 8.704L161.56 8.752L161.8 8.896L161.968 9.016L162.112 9.136L162.472 9.616L162.664 9.904L162.76 10.024L162.88 10.24L162.976 10.576L163.12 10.936L163.216 11.104L163.288 11.512V11.68L163.408 12.016L163.384 12.184L163.432 12.664L163.456 12.976L163.384 13.12L163.456 13.456L163.48 13.6L163.456 13.768L163.504 13.936L163.48 14.104V14.248L163.408 14.632V14.8L163.36 15.208L163.336 15.376V16.048L163.216 16.432V16.6L163.12 17.056L163.072 17.416L163.024 17.968L162.976 18.16L162.904 18.352L162.88 18.592L162.736 19.096L162.712 19.408L162.664 19.696L162.592 19.864L162.424 20.176L162.376 20.32L162.352 20.584L162.208 20.896L162.184 21.04L162.088 21.376L161.92 21.712L161.752 22.192L161.632 22.432L161.44 22.624L161.416 22.768L161.296 22.936L161.176 23.08L161.008 23.368L160.672 23.776L160.336 24.04L160.12 24.232L159.976 24.328L159.664 24.472L159.4 24.544L159.16 24.712L158.824 24.808L158.584 24.856L158.2 24.904L157.936 25H157.192L157.024 25.024H156.904L156.736 25.048ZM156.64 21.784H157.36L157.6 21.712L157.792 21.616L158.056 21.472L158.176 21.376L158.368 21.184L158.536 20.992L158.608 20.848L158.704 20.68L158.8 20.44L158.92 20.2L159.04 19.888L159.184 19.432L159.256 19.168L159.328 18.832L159.424 18.52L159.448 18.376L159.496 18.256L159.544 18.112L159.616 17.824L159.64 17.656L159.688 17.344L159.736 17.008L159.784 16.648L159.808 16.48L159.856 16.288L159.976 15.952V15.616L160.048 15.112L160.072 14.968L160.12 14.464L160.096 13.96L160.12 13.264L160.072 12.616L160.048 12.424L159.904 12.016L159.736 11.704L159.592 11.584L159.472 11.488L159.064 11.368L158.68 11.32L158.368 11.296L158.152 11.32L158.08 11.512L158.008 11.68V11.824L157.96 11.992L157.888 12.352L157.792 12.688L157.744 13L157.696 13.336L157.648 13.864L157.624 14.008L157.576 14.176V14.344L157.552 14.536L157.48 14.68V14.824L157.408 15.16L157.36 15.544V15.712L157.288 16.048L157.24 16.192L157.168 16.528V16.672L157.096 17.008L157.048 17.176L157.072 17.32L157.024 17.488L156.928 18.112V18.424L156.904 18.568L156.784 18.904V19.048L156.712 19.408L156.616 19.84L156.592 20.008L156.496 20.344L156.448 20.704L156.424 21.064L156.352 21.472L156.304 21.688L156.64 21.784ZM166.778 25.024L166.322 25H165.698L165.53 24.976H164.258L164.042 24.928L163.97 24.712L164.042 24.496L164.09 24.28L164.138 23.92L164.186 23.536L164.282 23.176L164.306 22.792L164.378 22.6V22.384L164.426 22.216V22.048L164.474 21.856L164.498 21.688L164.522 21.352L164.57 21.04L164.666 20.848L164.714 20.464V20.296L164.762 20.104L164.81 19.792V19.672L164.906 19.384L164.882 19.24L164.954 18.928L165.026 18.76L165.05 18.592L165.122 18.232L165.17 18.064L165.266 17.56V17.2L165.362 16.864L165.41 16.504L165.482 16.336L165.506 16.144L165.53 15.976V15.808L165.626 15.664L165.77 14.944L165.842 14.752L165.89 14.584L165.866 14.44L165.938 14.104L166.034 13.744L166.058 13.072L166.13 12.904L166.154 12.4L166.25 12.256L166.298 12.064L166.322 11.896L166.298 11.752L166.322 11.584L166.418 11.272L166.466 10.936L166.538 10.792V10.624L166.61 10.456L166.586 10.312L166.634 10.144L166.658 9.832L166.706 9.688L166.73 9.544L166.754 9.232L166.778 9.088L166.73 8.92L166.802 8.632L166.874 8.488L166.898 8.344L167.09 8.2H167.498L167.642 8.176L167.81 8.2L168.098 8.176H168.266L168.458 8.2H168.698L169.226 8.176L171.026 8.152L171.578 8.176L171.77 8.2L172.466 8.176H172.994L173.21 8.152L173.45 8.176L173.666 8.2L173.786 8.368L173.714 8.632V8.776L173.666 9.376V9.52L173.594 9.688L173.57 9.856L173.546 10L173.474 10.36V10.552L173.378 10.888L173.354 11.032L173.282 11.344L173.042 11.368H172.034L171.746 11.392H170.186L169.61 11.416L169.538 11.704L169.514 11.872V12.208L169.442 12.352V12.544L169.37 13L169.322 13.336L169.25 13.672L169.202 13.84L169.226 14.032L169.154 14.272L169.106 14.704H169.538L170.378 14.728L170.834 14.68H171.458L171.65 14.728L171.794 14.92L171.746 15.208V15.4L171.698 15.664L171.626 16L171.578 16.168L171.506 16.528V16.696L171.434 16.888L171.386 17.224L171.314 17.608L171.266 17.944L171.218 17.992H170.978L170.618 18.016H170.402L169.802 18.04L169.394 18.016H169.13L168.818 18.04H168.602L168.506 18.304L168.434 18.616L168.338 19.288L168.266 19.528L168.218 19.744L168.194 19.984L168.146 20.152L168.074 20.584L167.978 21.208V21.4L168.074 21.496L168.41 21.544H169.826L170.162 21.568L170.69 21.592L171.362 21.568L171.53 21.64L171.506 21.832L171.482 21.928L171.434 22.192L171.41 22.384L171.314 22.912V23.224L171.266 23.392L171.218 23.536L171.194 23.704L171.122 24.064L171.098 24.472L171.05 24.688L170.978 24.952H168.698L168.314 24.976L168.002 24.952L167.858 24.976H167.354L166.97 25L166.778 25.024Z" fill="#312783"/>
<path d="M97.3341 55L97.0151 54.971H96.3771L96.1451 54.942H95.5071L95.2171 54.971H95.1591L94.8111 54.826L94.7241 54.507L94.6661 54.217L94.6951 53.898L94.6661 53.724L94.6371 53.521V53.318L94.5791 52.941V52.506L94.6081 52.303V51.868L94.5791 51.636V51.114L94.6081 50.911V50.708L94.5501 50.505V50.099L94.5791 49.896V49.49L94.5501 49.287L94.5791 49.055L94.5211 48.852V48.446L94.5501 48.243V48.011L94.5791 47.808V47.402L94.5211 47.228L94.5501 47.025V46.822L94.5791 46.619L94.4921 46.445L94.5211 46.242V45.865L94.4921 45.662V45.285L94.5501 44.879V44.647L94.5791 44.444L94.5211 44.241V43.632L94.4921 43.4V43.023L94.5211 42.849L94.5501 42.472L94.4921 42.269V41.892L94.5791 41.515L94.5211 41.225V40.297L94.4921 40.065L94.4631 39.862L94.4921 39.659V38.412L94.5211 38.238L94.5501 37.832L94.5211 37.629L94.5501 37.426L94.5211 37.02L94.4921 36.846L94.5211 36.643V36.44L94.5501 36.266L94.5211 36.063L94.5501 35.86L94.5211 35.657L94.5501 35.483V35.193L94.6371 34.961L94.7241 34.845L95.0721 34.729L95.4201 34.758L95.6231 34.729L96.0871 34.7L96.4351 34.729H98.2041L98.4071 34.758L98.6101 34.903L98.6971 35.106L98.6681 35.483V35.541L98.6971 35.889V36.469L98.6391 36.701V37.136L98.5811 37.339L98.6101 37.542V37.948L98.5811 38.151V38.354L98.5521 38.557V38.76L98.5231 38.992V39.195L98.5811 39.398V39.601L98.5521 39.804V40.413L98.4651 40.935V41.341L98.4361 41.602V41.834L98.4071 42.008L98.4941 42.182L98.4651 42.559V42.704L98.4361 42.907V43.516L98.4071 43.748V43.951L98.4361 44.154V44.357L98.4071 44.676V44.908L98.3781 45.111L98.3491 45.227L98.3781 45.401L98.3491 45.836V46.039L98.3201 46.271L98.2621 46.619L98.2911 46.938V47.257L98.2621 47.518L98.2911 47.663L98.3781 47.634L98.4941 47.518L98.5811 47.344L98.6391 47.17L98.6681 46.996L98.8711 46.619L98.9581 46.387L99.0161 46.213L99.1031 45.836L99.2481 45.633L99.3061 45.459L99.4511 45.169L99.5091 44.966L99.5381 44.792L99.6541 44.502L99.7411 44.299L99.7991 44.096L99.9151 43.719L99.9731 43.516L100.06 43.4L100.147 43.197L100.263 42.878L100.321 42.704L100.35 42.53L100.408 42.443L100.466 42.24L100.495 42.066L100.669 41.718L100.727 41.573L100.843 41.428L100.959 41.167L101.046 40.79L101.104 40.587L101.365 39.978L101.394 39.804L101.481 39.601L101.568 39.195L101.597 39.021L101.684 38.818L101.771 38.644L101.829 38.47L102.061 38.093L102.09 37.89L102.148 37.716L102.177 37.513L102.293 37.107L102.38 36.904L102.554 36.527L102.989 35.338L103.192 34.961L103.511 34.787L103.772 34.729L104.091 34.816L104.323 34.758L104.497 34.816H104.7L104.903 34.845L105.077 34.816H105.773L105.976 34.787L106.092 34.816H106.498L106.817 34.845H107.194L107.484 34.932V35.222L107.455 35.396L107.281 35.715L107.194 35.947L107.165 36.15L107.078 36.324L106.991 36.527L106.962 36.788L106.875 36.962L106.759 37.136L106.672 37.339L106.527 37.716L106.469 37.89L106.382 38.209L106.237 38.383L106.15 38.557L106.092 38.702L106.005 38.876L105.947 39.166L105.86 39.311L105.831 39.485L105.744 39.659L105.599 39.978L105.454 40.181L105.396 40.384L105.309 40.761L105.222 40.906L105.135 41.08L105.077 41.254L104.932 41.631L104.845 41.834L104.816 42.066L104.613 42.443L104.526 42.588L104.381 42.936L104.323 43.139L104.178 43.516L104.12 43.719L103.946 44.038L103.743 44.357L103.598 44.705L103.54 44.879L103.424 45.053L103.337 45.401L103.25 45.575L103.221 45.749L103.076 46.068L102.989 46.242L102.873 46.416L102.786 46.561L102.757 46.735L102.583 47.257L102.496 47.431L102.38 47.605V47.779L102.148 48.156L102.061 48.359L102.003 48.562L101.742 48.939L101.626 49.345L101.481 49.693L101.249 50.215L101.133 50.418L101.104 50.621L100.901 50.998L100.611 51.52L100.524 51.694L100.437 51.897L100.379 52.1L100.292 52.303L100.147 52.477L100.002 52.912L99.9151 53.115L99.8571 53.289L99.7701 53.463L99.7121 53.637L99.5961 53.811L99.4221 54.13L99.3061 54.333L99.1321 54.652L99.0451 54.913L98.9001 55H98.6681L98.4071 54.942L98.2041 54.971L97.9721 55H97.3341ZM109.531 55.029L108.98 55H108.226L108.023 54.971H106.486L106.225 54.913L106.138 54.652L106.225 54.391L106.283 54.13L106.341 53.695L106.399 53.231L106.515 52.796L106.544 52.332L106.631 52.1V51.839L106.689 51.636V51.433L106.747 51.201L106.776 50.998L106.805 50.592L106.863 50.215L106.979 49.983L107.037 49.519V49.316L107.095 49.084L107.153 48.707V48.562L107.269 48.214L107.24 48.04L107.327 47.663L107.414 47.46L107.443 47.257L107.53 46.822L107.588 46.619L107.704 46.01V45.575L107.82 45.169L107.878 44.734L107.965 44.531L107.994 44.299L108.023 44.096V43.893L108.139 43.719L108.313 42.849L108.4 42.617L108.458 42.414L108.429 42.24L108.516 41.834L108.632 41.399L108.661 40.587L108.748 40.384L108.777 39.775L108.893 39.601L108.951 39.369L108.98 39.166L108.951 38.992L108.98 38.789L109.096 38.412L109.154 38.006L109.241 37.832V37.629L109.328 37.426L109.299 37.252L109.357 37.049L109.386 36.672L109.444 36.498L109.473 36.324L109.502 35.947L109.531 35.773L109.473 35.57L109.56 35.222L109.647 35.048L109.676 34.874L109.908 34.7H110.401L110.575 34.671L110.778 34.7L111.126 34.671H111.329L111.561 34.7H111.851L112.489 34.671L114.664 34.642L115.331 34.671L115.563 34.7L116.404 34.671H117.042L117.303 34.642L117.593 34.671L117.854 34.7L117.999 34.903L117.912 35.222V35.396L117.854 36.121V36.295L117.767 36.498L117.738 36.701L117.709 36.875L117.622 37.31V37.542L117.506 37.948L117.477 38.122L117.39 38.499L117.1 38.528H115.882L115.534 38.557H113.649L112.953 38.586L112.866 38.934L112.837 39.137V39.543L112.75 39.717V39.949L112.663 40.5L112.605 40.906L112.518 41.312L112.46 41.515L112.489 41.747L112.402 42.037L112.344 42.559H112.866L113.881 42.588L114.432 42.53H115.186L115.418 42.588L115.592 42.82L115.534 43.168V43.4L115.476 43.719L115.389 44.125L115.331 44.328L115.244 44.763V44.966L115.157 45.198L115.099 45.604L115.012 46.068L114.954 46.474L114.896 46.532H114.606L114.171 46.561H113.91L113.185 46.59L112.692 46.561H112.373L111.996 46.59H111.735L111.619 46.909L111.532 47.286L111.416 48.098L111.329 48.388L111.271 48.649L111.242 48.939L111.184 49.142L111.097 49.664L110.981 50.418V50.65L111.097 50.766L111.503 50.824H113.214L113.62 50.853L114.258 50.882L115.07 50.853L115.273 50.94L115.244 51.172L115.215 51.288L115.157 51.607L115.128 51.839L115.012 52.477V52.854L114.954 53.057L114.896 53.231L114.867 53.434L114.78 53.869L114.751 54.362L114.693 54.623L114.606 54.942H111.851L111.387 54.971L111.01 54.942L110.836 54.971H110.227L109.763 55L109.531 55.029ZM117.679 55.058L117.244 55L117.099 54.652L117.157 54.42V53.956L117.215 53.492L117.331 53.086L117.36 52.883L117.447 52.477L117.505 52.332L117.592 51.926L117.65 51.665L117.737 51.201V50.998L117.795 50.766V50.389L117.911 50.186L117.94 49.838L117.969 49.635L118.056 49.287L118.085 49.113L118.056 48.91L118.114 48.533L118.23 48.069L118.288 47.721L118.346 47.46L118.433 47.141L118.491 46.793L118.52 46.59L118.578 46.416L118.607 46.039L118.636 45.865V45.691L118.781 45.343L118.81 45.169L118.839 44.966L118.868 44.56L118.897 44.27L119.042 43.922L119.1 43.69L119.158 43.4V42.994L119.187 42.762L119.274 42.53V42.298L119.361 42.095V41.892L119.419 41.689L119.477 41.312L119.564 40.993L119.651 40.732V40.384L119.68 40.181L119.738 40.007L119.883 39.195V38.992L119.999 38.731L120.057 38.47L120.086 38.093L120.115 37.89L120.144 37.716L120.173 37.513L120.231 37.339L120.26 37.136L120.318 36.759L120.376 36.411L120.463 36.034V35.802L120.55 35.425L120.608 35.251L120.695 35.106L120.869 34.787L121.159 34.729L121.565 34.7L122.058 34.729H122.319L122.696 34.7L123.247 34.729L123.595 34.7L124.03 34.729H124.436L124.755 34.816L124.929 35.077L124.958 35.28L125.074 35.57L125.132 35.918L125.161 36.237L125.277 36.643L125.393 37.339L125.48 37.803L125.567 38.296L125.654 38.702L125.77 39.282L125.828 39.514L125.857 39.717L125.915 40.152L126.002 40.529V40.703L126.089 41.022V41.225L126.118 41.544L126.205 41.979L126.263 42.472L126.35 42.965L126.379 43.429L126.437 43.835L126.495 44.067L126.582 44.85L126.698 45.517L126.756 46.155V46.358L126.814 46.561L126.872 46.909L126.959 47.692L127.046 48.33H127.133L127.162 47.75L127.22 47.054V46.648L127.307 45.256L127.394 44.647V43.661L127.481 43.255L127.51 43.081L127.539 42.878L127.568 42.646L127.597 42.24L127.655 42.066L127.713 41.66V41.486L127.829 41.109V40.761L127.858 40.413V40.21L128.032 39.862L128.003 39.659L128.09 39.137V38.963L128.177 38.586L128.206 38.383L128.264 38.209L128.322 37.803L128.351 37.571L128.438 37.165L128.496 36.962L128.583 36.73V36.469L128.612 36.295L128.699 35.831L128.815 35.222L129.047 34.816L129.163 34.729L129.714 34.613L130.323 34.671L130.526 34.642H130.816L131.483 34.671H131.773L132.179 34.642L132.585 34.729L132.759 34.816L132.788 35.048V35.28L132.701 35.686L132.73 35.918L132.643 36.556L132.585 36.962L132.411 37.658L132.324 37.977L132.237 38.499L132.179 38.731L132.092 39.34L131.976 39.804L131.918 40.268L131.831 40.529L131.773 40.761L131.715 40.964V41.341L131.657 41.544L131.541 42.414L131.454 42.675L131.425 42.994L131.396 43.197L131.338 43.429L131.251 43.806L131.193 44.009L131.106 44.386L131.048 44.792L130.99 45.024L131.019 45.285L130.961 45.459L130.932 45.662L130.874 45.836L130.845 46.039L130.816 46.213V46.59L130.729 46.764L130.642 47.17L130.584 47.431L130.555 47.692L130.526 47.866L130.497 48.069L130.468 48.243V48.417L130.352 48.823L130.294 49.229L130.236 49.519L130.12 49.78L130.004 50.128L129.975 50.447L129.946 50.824L129.888 51.201L129.801 51.433L129.685 51.839V52.303L129.54 52.68V52.854L129.482 53.057L129.395 53.434L129.25 54.362L128.989 54.71L128.699 54.913L128.293 54.942L127.974 55H127.858L127.307 54.971L127.104 55L126.814 54.971L126.64 55H126.06L125.683 54.971H125.19L124.958 54.768L124.726 54.304L124.581 53.898L124.552 53.753L124.523 53.405L124.494 53.231L124.436 52.622L124.407 52.448L124.291 51.839L124.262 51.665L124.204 51.259L124.175 50.824L124.088 50.505L124.001 50.07V49.896L123.914 49.49L123.885 49.316L123.798 48.91L123.769 48.736V48.301L123.653 47.721L123.595 47.17L123.479 46.358L123.334 45.43L123.247 44.618L123.073 43.574L122.899 42.472H122.812L122.783 43.284L122.754 43.864L122.725 44.183L122.667 44.676L122.638 45.401L122.435 46.793L122.319 47.924L122.261 48.098L122.174 48.475L122.232 48.678L122.145 49.026L122.087 49.229L122.116 49.432L122.087 49.606L122.029 50.012L121.913 50.447L121.797 51.027L121.739 51.433L121.71 51.607L121.652 51.81L121.536 52.651L121.449 53.028L121.42 53.231V53.608L121.362 53.782L121.275 54.304L121.159 54.652L121.072 54.942L120.753 55.058H117.679ZM137.981 55.058L137.314 55.029L136.937 55L136.56 55.029L136.125 54.971L135.777 55L135.545 54.971H135.284L134.878 54.913L134.704 54.884H134.472L134.269 54.913H133.399L132.993 54.855L132.761 54.797V54.13L132.79 53.869L132.935 53.521L132.993 53.115L133.022 52.941L133.109 52.535L133.167 52.245L133.225 52.013V51.781L133.283 51.375L133.312 51.143L133.37 50.824L133.486 50.592L133.544 50.302V50.07L133.631 49.664L133.689 49.432L133.718 49.055L133.747 48.881L133.863 48.678V48.04L133.95 47.634L133.979 47.402L134.066 46.996L134.095 46.793L134.153 46.416L134.211 46.213L134.298 45.865L134.327 45.691L134.443 45.343V44.763L134.501 44.56L134.559 44.386L134.646 43.98L134.704 43.806L134.849 42.994L134.936 42.791L134.994 42.588L135.023 42.385V42.211L135.052 42.008L135.11 41.66L135.139 41.457L135.226 41.109V40.935L135.284 40.587L135.4 40.239V39.833L135.429 39.601L135.487 38.992L135.545 38.644L135.69 38.122L135.748 37.919V37.745L135.777 37.542L135.864 37.165L135.922 36.759L135.98 36.411L136.067 36.237L136.096 36.034L136.125 35.686L136.183 35.483L136.27 35.193L136.328 35.106L136.415 34.787L136.705 34.7H136.908L137.256 34.729L137.459 34.758L137.923 34.7H138.155L138.793 34.729L139.373 34.7H140.098L140.417 34.729L140.591 34.7H141.055L141.287 34.729L141.548 34.758L141.983 34.816H142.186L142.418 34.903L142.824 35.019H142.882L143.056 35.077L143.549 35.222L143.694 35.309L143.81 35.367L144.1 35.541L144.303 35.686L144.477 35.831L144.912 36.411L145.144 36.759L145.26 36.904L145.405 37.165L145.521 37.571L145.695 38.006L145.811 38.209L145.898 38.702V38.905L146.043 39.311L146.014 39.514L146.072 40.094L146.101 40.471L146.014 40.645L146.101 41.051L146.13 41.225L146.101 41.428L146.159 41.631L146.13 41.834V42.008L146.043 42.472V42.675L145.985 43.168L145.956 43.371V44.183L145.811 44.647V44.85L145.695 45.401L145.637 45.836L145.579 46.503L145.521 46.735L145.434 46.967L145.405 47.257L145.231 47.866L145.202 48.243L145.144 48.591L145.057 48.794L144.854 49.171L144.796 49.345L144.767 49.664L144.593 50.041L144.564 50.215L144.448 50.621L144.245 51.027L144.042 51.607L143.897 51.897L143.665 52.129L143.636 52.303L143.491 52.506L143.346 52.68L143.143 53.028L142.737 53.521L142.331 53.84L142.07 54.072L141.896 54.188L141.519 54.362L141.2 54.449L140.91 54.652L140.504 54.768L140.214 54.826L139.75 54.884L139.431 55H138.532L138.329 55.029H138.184L137.981 55.058ZM137.865 51.114H138.735L139.025 51.027L139.257 50.911L139.576 50.737L139.721 50.621L139.953 50.389L140.156 50.157L140.243 49.983L140.359 49.78L140.475 49.49L140.62 49.2L140.765 48.823L140.939 48.272L141.026 47.953L141.113 47.547L141.229 47.17L141.258 46.996L141.316 46.851L141.374 46.677L141.461 46.329L141.49 46.126L141.548 45.749L141.606 45.343L141.664 44.908L141.693 44.705L141.751 44.473L141.896 44.067V43.661L141.983 43.052L142.012 42.878L142.07 42.269L142.041 41.66L142.07 40.819L142.012 40.036L141.983 39.804L141.809 39.311L141.606 38.934L141.432 38.789L141.287 38.673L140.794 38.528L140.33 38.47L139.953 38.441L139.692 38.47L139.605 38.702L139.518 38.905V39.079L139.46 39.282L139.373 39.717L139.257 40.123L139.199 40.5L139.141 40.906L139.083 41.544L139.054 41.718L138.996 41.921V42.124L138.967 42.356L138.88 42.53V42.704L138.793 43.11L138.735 43.574V43.777L138.648 44.183L138.59 44.357L138.503 44.763V44.937L138.416 45.343L138.358 45.546L138.387 45.72L138.329 45.923L138.213 46.677V47.054L138.184 47.228L138.039 47.634V47.808L137.952 48.243L137.836 48.765L137.807 48.968L137.691 49.374L137.633 49.809L137.604 50.244L137.517 50.737L137.459 50.998L137.865 51.114ZM148.143 55.058L147.708 55.029L147.505 55L145.388 54.971L145.127 54.913L145.069 54.681L145.127 54.478L145.156 54.304L145.33 53.956L145.562 53.579L145.852 52.709L146.026 52.361L146.171 52.013L146.49 51.317L146.606 50.94L146.838 50.418L146.896 50.244L147.041 50.041L147.186 49.693L147.244 49.519L147.273 49.316L147.36 49.142L147.505 48.765L147.592 48.562L147.795 48.156L147.853 47.953L147.911 47.692L148.056 47.46L148.23 47.112L148.288 46.909L148.462 46.503L148.491 46.329L148.578 46.126L148.665 45.952L148.81 45.546L148.897 45.372L149.129 44.56L149.216 44.328L149.419 43.951L149.564 43.458L149.738 43.139L149.825 42.965L149.912 42.588L150.057 42.385L150.144 42.008L150.202 41.863L150.376 41.486L150.463 41.08L150.608 40.877L150.724 40.703L150.956 40.094L151.101 39.717L151.188 39.543L151.362 39.282L151.449 38.992L151.536 38.789L151.797 38.267L151.855 38.064L151.942 37.89L152 37.716L152.058 37.513L152.232 37.194L152.348 37.02L152.406 36.875L152.58 36.353L152.783 35.976L153.044 35.454L153.131 35.251L153.218 35.077L153.334 34.758L153.537 34.729H153.827L154.378 34.758L154.668 34.729H155.132L155.683 34.7H155.944L156.147 34.758L156.408 34.729H156.872L157.017 34.787L157.22 34.932L157.307 36.179V36.817L157.365 36.991V37.513L157.394 38.557V38.963L157.423 39.34L157.481 39.92V40.326L157.51 40.761L157.481 40.964V41.602L157.539 42.008V42.588L157.568 42.994L157.539 43.168L157.568 43.545V43.719L157.597 44.183L157.655 44.502V45.633L157.684 45.981L157.713 46.213V47.083L157.742 48.417V48.62L157.771 49.055L157.742 49.49L157.771 49.896L157.742 50.099L157.8 51.201V51.375L157.829 51.752L157.858 51.955V52.39L157.829 52.796L157.858 53.028V53.289L157.887 53.927V54.536C157.916 54.652 157.945 54.913 157.8 55C157.684 55.029 157.597 55 157.481 55L157.278 55.029L157.046 55H156.64L156.002 55.029H155.77L155.422 55L155.219 55.029L154.929 55.058L154.552 55.029H154.117L154.001 54.942L153.943 54.652L153.914 54.13L153.885 53.84L153.914 53.55V52.187L153.885 51.955L153.247 51.926L152.783 51.868L151.507 51.839H150.724L150.579 52.158L150.376 52.535L150.318 52.738L150.231 52.941L150.115 53.289L149.825 53.84L149.651 54.275L149.564 54.594L149.477 54.739L149.361 54.942L149.187 55.058L148.375 55.029L148.143 55.058ZM152.928 48.069H153.798L153.972 47.924L154.001 47.518L153.972 47.286L154.001 47.054V46.3L154.03 46.097V45.604L154.088 45.372L154.059 44.676L154.088 43.574L154.117 42.53L154.088 41.863L153.856 41.95L153.74 42.327L153.595 42.791L153.508 43.081L153.363 43.545L153.247 43.777L153.131 44.067L153.102 44.27L152.986 44.473L152.899 44.734L152.812 44.937L152.725 45.198L152.551 45.836L152.522 46.039L152.377 46.474L152.261 46.677L152.116 47.17L152.058 47.373L152 47.634L151.913 47.837L152.116 48.011H152.348L152.667 48.04L152.928 48.069ZM164.649 55.377L163.953 55.319L163.75 55.29H163.46L163.141 55.232L162.851 55.174L162.648 55.116L162.184 54.913L161.865 54.797L161.575 54.594L161.227 54.362L160.937 53.985L160.647 53.637L160.386 53.231L160.183 52.738L160.125 52.506L159.922 51.984L159.893 51.81L159.806 51.404L159.777 51.23L159.719 50.766V49.896L159.748 49.403L159.719 49.2L159.777 48.765L159.806 48.533L159.864 48.33L159.951 47.866L160.357 47.663L161.053 47.605L161.401 47.634H163.025L163.402 47.663L163.634 48.069V49.142L163.605 49.345V49.954L163.663 50.592L163.75 50.882L163.953 51.317L164.243 51.607L164.62 51.694H164.881L165.113 51.636L165.432 51.549L165.577 51.404L165.722 51.143L165.838 50.94L165.954 50.592L166.012 50.244L166.041 49.954V49.751L166.012 49.345V48.881L165.896 48.359V48.185L165.809 47.75L165.577 47.344L165.345 46.996L165.142 46.59L165.026 46.416L164.968 46.271L164.881 46.126L164.678 45.923L164.533 45.691L164.214 45.314L164.069 45.169L163.953 44.995L163.634 44.618L163.286 44.241L163.025 43.864L162.735 43.545L162.445 43.313L162.3 43.11L162.126 42.82L161.952 42.385L161.836 42.124L161.691 41.921L161.604 41.718L161.546 41.486L161.43 41.109L161.401 40.732L161.372 40.5L161.401 40.297V39.456L161.459 38.876L161.546 38.673L161.575 38.267L161.691 38.064L161.778 37.774L161.807 37.484L161.981 37.107L162.097 36.875L162.184 36.672L162.271 36.527L162.503 36.266L162.59 36.15L162.764 35.86L162.938 35.686L163.286 35.396L163.808 35.019L164.272 34.845L164.591 34.671L165.142 34.555L165.635 34.41H166.534L167.259 34.439H167.462L167.723 34.497L168.158 34.526L168.651 34.671L168.854 34.7L168.97 34.787L169.318 34.961L169.521 35.135L169.753 35.222L170.072 35.512L170.159 35.628L170.449 35.947L170.536 36.092L170.739 36.411L170.855 36.585L170.913 36.904L171 37.107L171.174 37.803V38.441L171.203 39.021L171.174 39.514L171.058 40.326L170.942 40.964L170.594 41.138L170.072 41.167H168.448L168.042 41.138H167.636L167.404 40.935L167.375 40.558L167.433 40.326L167.52 39.427V38.76L167.462 38.412L167.375 38.238L167.114 37.977L166.824 37.745L166.447 37.687L166.099 37.803L165.78 37.948L165.635 38.151L165.548 38.354L165.432 38.644L165.403 38.847L165.316 39.137L165.287 39.543V39.92L165.316 40.123L165.519 40.674L165.751 41.08L165.867 41.312L166.07 41.689L166.389 42.095L166.766 42.559L166.882 42.733L167.027 42.878L167.143 43.11L167.259 43.255L167.433 43.371L167.723 43.603L167.81 43.777L167.955 43.864L168.042 44.009L168.303 44.299L168.448 44.56L168.796 44.908L168.999 45.401L169.26 45.72L169.289 45.865L169.521 46.445L169.695 46.822L169.869 47.431L169.898 47.634L169.927 47.866L169.956 48.069L170.101 48.562L170.159 48.736L170.13 49.142L170.101 49.316L170.13 49.519L170.101 49.722V50.534L170.014 50.94L169.985 51.114V51.549L169.869 51.926L169.811 52.158L169.753 52.419L169.608 52.825L169.347 53.318L169.173 53.434L169.028 53.724L168.883 53.84L168.651 54.101L168.506 54.217L168.274 54.42L167.984 54.594L167.723 54.797L167.375 54.884L167.201 55L166.766 55.145L166.534 55.174L166.157 55.29L165.954 55.319L165.693 55.29L165.49 55.319H165.171L164.968 55.348L164.649 55.377Z" fill="#312783"/>
</svg>
